<svg width="129" height="158" viewBox="0 0 129 158" fill="none" xmlns="http://www.w3.org/2000/svg">
<path d="M20.9 128.806L64 54.1062L107.2 128.806H20.9Z" fill="#0B7077"/>
<path d="M128.1 46.9062L64 157.906L0 46.9062H128.1Z" fill="#FD661F"/>
<mask id="mask0_3_7716" style="mask-type:luminance" maskUnits="userSpaceOnUse" x="0" y="0" width="129" height="158">
<path d="M101.2 46.9062V0.106201H26.9V46.9062H0L64 157.906L128.1 46.9062H101.2Z" fill="white"/>
</mask>
<g mask="url(#mask0_3_7716)">
<path d="M93.5999 86.0644C82.3999 77.8644 73.7999 73.5644 73.7999 68.8644C73.7999 64.2644 73.7999 58.2644 73.7999 58.2644H62.4999H61.6999H50.3999C50.3999 58.2644 50.3999 64.2644 50.3999 68.8644C50.3999 73.4644 41.7999 77.8644 30.5999 86.0644C19.3999 94.2644 19.0999 114.064 19.0999 114.064H61.7999H62.6999H105.4C105.2 114.064 104.9 94.1644 93.5999 86.0644Z" fill="url(#paint0_linear_3_7716)"/>
<path d="M93.5999 86.0644C82.3999 77.8644 73.7999 73.5644 73.7999 68.8644C73.7999 64.2644 73.7999 58.2644 73.7999 58.2644H62.4999H62.0999V114.064H62.4999H105.2C105.2 114.064 104.9 94.1644 93.5999 86.0644Z" fill="url(#paint1_linear_3_7716)"/>
<path d="M80.8999 77.0644C76.4999 73.9644 73.7999 71.4644 73.7999 68.8644C73.7999 64.2644 73.7999 58.2644 73.7999 58.2644H62.4999H61.6999H50.3999C50.3999 58.2644 50.3999 59.1644 50.3999 60.4644C51.1999 62.2644 54.8999 70.1644 62.1999 73.8644C68.5999 77.1644 75.6999 78.3644 80.8999 77.0644Z" fill="url(#paint2_linear_3_7716)"/>
<path d="M81.8999 40.6644C81.8999 40.6644 83.8999 36.4644 87.0999 37.0644C90.2999 37.6644 89.1999 43.0644 87.6999 45.9644C85.3999 50.5644 79.7999 51.9644 79.6999 50.2644C79.5999 48.5644 81.8999 40.6644 81.8999 40.6644Z" fill="url(#paint3_linear_3_7716)"/>
<path d="M42.1999 40.6644C42.1999 40.6644 40.1999 36.4644 36.9999 37.0644C33.7999 37.6644 34.8999 43.0644 36.3999 45.9644C38.6999 50.5644 44.2999 51.9644 44.3999 50.2644C44.4999 48.5644 42.1999 40.6644 42.1999 40.6644Z" fill="url(#paint4_linear_3_7716)"/>
<path d="M38.3999 37.1644C39.6999 43.2644 42.0999 47.7644 43.8999 50.9644C44.1999 50.8644 44.3999 50.6644 44.3999 50.3644C44.4999 48.6644 42.1999 40.7644 42.1999 40.7644C42.1999 40.7644 40.7999 37.6644 38.3999 37.1644Z" fill="url(#paint5_linear_3_7716)"/>
<path d="M81.8999 40.6645C81.8999 40.6645 79.5999 48.5645 79.6999 50.2645C79.6999 50.5645 79.8999 50.7645 80.1999 50.8645C81.9999 47.6645 84.2999 43.1645 85.6999 37.0645C83.2999 37.6645 81.8999 40.6645 81.8999 40.6645Z" fill="url(#paint6_linear_3_7716)"/>
<path d="M83.8999 24.8644C82.2999 8.36443 68.7999 5.16443 61.9999 5.16443C55.1999 5.16443 41.6999 8.36443 40.0999 24.8644C38.4999 41.3644 43.9999 50.9644 46.4999 56.1644C48.9999 61.2644 57.2999 64.5644 61.8999 64.5644C66.4999 64.5644 74.7999 61.2644 77.2999 56.1644C79.9999 50.9644 85.4999 41.2644 83.8999 24.8644Z" fill="url(#paint7_linear_3_7716)"/>
<path d="M77.3999 56.0645C79.8999 50.9645 85.3999 41.2645 83.7999 24.7645C82.1999 8.26445 68.6999 5.06445 61.8999 5.06445V64.5645C66.6999 64.5645 74.8999 61.2645 77.3999 56.0645Z" fill="url(#paint8_linear_3_7716)"/>
<path d="M83.8998 24.8644C82.2998 8.36443 68.7999 5.16443 61.9999 5.16443C55.1999 5.16443 41.6998 8.36443 40.0998 24.8644C39.4998 30.6644 39.8998 35.6644 40.5998 39.8644C40.6998 39.6644 43.8998 32.7644 44.4998 28.5644C44.4998 28.5644 45.1998 30.2644 46.2998 30.8644C47.2998 28.4644 47.8998 24.3644 47.6998 21.0644C47.6998 21.0644 50.2999 25.5644 57.9999 28.9644C57.9999 28.9644 57.6999 25.4644 56.9999 23.3644C63.6999 28.4644 70.9998 30.4644 75.6998 30.3644C75.6998 30.3644 75.3998 28.1644 74.3998 26.3644C74.9998 27.1644 76.3998 28.4644 79.1998 29.2644C79.1998 29.2644 81.3998 34.7644 83.2998 39.6644C84.0998 35.3644 84.3998 30.5644 83.8998 24.8644Z" fill="url(#paint9_linear_3_7716)"/>
<path d="M68.0999 53.6644H55.8999C55.5999 53.6644 55.4999 54.1644 55.5999 54.6644C56.6999 56.7644 59.1999 58.2644 61.9999 58.2644C64.7999 58.2644 67.1999 56.8644 68.3999 54.7644C68.5999 54.3644 68.4999 53.6644 68.0999 53.6644Z" fill="url(#paint10_linear_3_7716)"/>
<path d="M67.1999 56.3644C66.2999 55.0644 64.2999 54.1644 62.0999 54.1644C59.7999 54.1644 57.8999 55.0644 56.8999 56.3644C58.1999 57.5644 59.9999 58.2644 62.0999 58.2644C64.0999 58.2644 65.8999 57.4644 67.1999 56.3644Z" fill="url(#paint11_linear_3_7716)"/>
<path d="M68.0999 53.6644H55.8999C56.2999 54.2644 56.7999 54.8644 57.5999 55.0644C58.9999 55.3644 61.9999 55.3644 61.9999 55.3644C61.9999 55.3644 64.9999 55.3644 66.3999 55.0644C67.1999 54.8644 67.7999 54.2644 68.0999 53.6644Z" fill="url(#paint12_linear_3_7716)"/>
<path d="M70 35.7644C69 36.4644 67.9999 37.6644 68.0999 39.2644C68.0999 39.2644 69.0999 40.9644 72.8999 40.6644C76.1999 40.3644 76.5999 37.4644 76.5999 37.4644C75.6999 35.8644 73.9 34.2644 70 35.7644Z" fill="white"/>
<path d="M54.1 35.7644C55.1 36.4644 56.1 37.6644 56 39.2644C56 39.2644 55 40.9644 51.2 40.6644C47.9 40.3644 47.5 37.4644 47.5 37.4644C48.4 35.8644 50.3 34.2644 54.1 35.7644Z" fill="white"/>
<path d="M75.1 37.6644C75.1 39.1644 73.9 40.4644 72.3 40.4644C70.8 40.4644 69.5 39.2644 69.5 37.6644C69.5 36.1644 70.7 34.8644 72.3 34.8644C73.9 34.8644 75.1 36.0644 75.1 37.6644Z" fill="url(#paint13_linear_3_7716)"/>
<path d="M75.8999 36.9643C75.8999 37.4643 75.3999 37.7643 74.7999 37.7643C74.1999 37.7643 73.7 37.3643 73.7 36.9643C73.7 36.4643 74.1999 36.1644 74.7999 36.1644C75.3999 36.0644 75.8999 36.4643 75.8999 36.9643Z" fill="white"/>
<path d="M67.7 38.7643C67.7 38.7643 69.5 35.6643 72.7 35.6643C75.6 35.6643 76.7 37.9643 76.7 37.9643L77.7 36.9643C77.7 36.9643 75.6 34.4643 72.5 34.6643C68.1 35.0643 67.7 38.7643 67.7 38.7643Z" fill="#262B3B"/>
<path d="M66.1 32.1644C66.1 32.1644 68 33.0644 71.8 31.9644C75.6 30.8644 75.8 30.2644 78.8 30.0644C78.8 30.0644 73.8 28.5644 70.2 29.7644C67.2 30.9644 66.1 32.1644 66.1 32.1644Z" fill="#262B3B"/>
<path d="M48.8999 37.6644C48.8999 39.1644 50.0999 40.4644 51.6999 40.4644C53.1999 40.4644 54.4999 39.2644 54.4999 37.6644C54.4999 36.1644 53.2999 34.8644 51.6999 34.8644C50.1999 34.8644 48.8999 36.0644 48.8999 37.6644Z" fill="url(#paint14_linear_3_7716)"/>
<path d="M55.3 36.9643C55.3 37.4643 54.8 37.7643 54.2 37.7643C53.6 37.7643 53.1 37.3643 53.1 36.9643C53.1 36.4643 53.6 36.1644 54.2 36.1644C54.8 36.0644 55.3 36.4643 55.3 36.9643Z" fill="white"/>
<path d="M56.3999 38.7643C56.3999 38.7643 54.5999 35.6643 51.3999 35.6643C48.4999 35.6643 47.3999 37.9643 47.3999 37.9643L46.3999 36.9643C46.3999 36.9643 48.4999 34.4643 51.5999 34.6643C55.8999 35.0643 56.3999 38.7643 56.3999 38.7643Z" fill="#262B3B"/>
<path d="M57.8999 32.1644C57.8999 32.1644 56 33.0644 52.2 31.9644C48.4 30.8644 48.2 30.2644 45.2 30.0644C45.2 30.0644 50.1999 28.5644 53.7999 29.7644C56.8999 30.9644 57.8999 32.1644 57.8999 32.1644Z" fill="#262B3B"/>
<path d="M61.9999 49.4644C61.9999 49.4644 60.4999 49.3644 59.4999 48.8644C59.4999 48.8644 59.9999 50.7644 61.9999 50.9644C63.9999 50.7644 64.4999 48.8644 64.4999 48.8644C63.5999 49.2644 61.9999 49.4644 61.9999 49.4644Z" fill="#DD8076"/>
<path d="M93.5999 86.0644C87.5999 81.6644 82.3999 78.4644 78.7999 75.6644L61.9999 82.2644L45.1999 75.6644C41.5999 78.4644 36.3999 81.7644 30.3999 86.0644C19.1999 94.2644 18.8999 114.064 18.8999 114.064V143.064H105.2V114.064C105.2 114.064 104.9 94.1644 93.5999 86.0644Z" fill="#B88C78"/>
<path d="M56 143.064H67.8999L85.2999 80.2644C82.7999 78.5644 80.5999 77.0644 78.7999 75.6644L62 82.2644L45.2 75.6644C43.4 77.0644 41.2 78.5644 38.7 80.2644L56 143.064Z" fill="#947060"/>
<path d="M78.7999 75.5645L62 136.564L45.2 75.5645L62 81.5645L78.7999 75.5645Z" fill="url(#paint15_linear_3_7716)"/>
<path d="M59.0999 91.6645L54.2 86.1645L62 81.5645L69.8999 86.1645L65 91.6645H59.0999Z" fill="url(#paint16_linear_3_7716)"/>
<path d="M68.2999 114.064L64.9999 91.6644H58.9999L55.7999 114.064L61.9999 136.564L68.2999 114.064Z" fill="url(#paint17_linear_3_7716)"/>
<path d="M50.2999 67.9645L62 80.3645V82.7645L49.7999 92.0645L45.2 75.5645L50.2999 67.9645Z" fill="url(#paint18_linear_3_7716)"/>
<path d="M73.7999 67.9645L61.9999 80.3645V82.7645L74.2999 92.0645L78.7999 75.5645L73.7999 67.9645Z" fill="url(#paint19_linear_3_7716)"/>
<path d="M47.0999 18.7644C47.0999 18.7644 49.6999 23.2644 57.3999 26.6644C57.3999 26.6644 57.0999 23.1644 56.3999 21.0644C63.0999 26.1644 70.3999 28.1644 75.0999 28.0644C75.0999 28.0644 74.6999 25.2644 73.2999 23.3644C73.2999 23.3644 75.8999 25.8644 79.9999 27.0644C79.9999 27.0644 82.1999 31.8644 83.3999 39.4644C83.3999 39.4644 88.0999 34.6644 88.0999 23.1644C88.0999 11.6644 83.1999 -1.13556 63.3999 -3.13556L67.2999 -6.13556C58.0999 -6.83556 46.9999 -5.63557 41.3999 6.26443C41.3999 6.26443 38.7999 3.96443 34.2999 5.56443C36.0999 9.06443 39.0999 8.56443 40.2999 8.16443C34.0999 12.2644 34.0999 17.7644 34.6999 24.7644C35.2999 31.6644 37.5999 37.3644 40.9999 39.4644C40.9999 39.4644 43.2999 30.4644 43.8999 26.3644C43.8999 26.3644 44.5999 28.0644 45.6999 28.6644C46.6999 26.2644 47.2999 22.0644 47.0999 18.7644Z" fill="url(#paint20_linear_3_7716)"/>
</g>
<defs>
<linearGradient id="paint0_linear_3_7716" x1="62.0376" y1="101.329" x2="62.0376" y2="64.2644" gradientUnits="userSpaceOnUse">
<stop stop-color="#FBDAD0"/>
<stop offset="1" stop-color="#FBB8A6"/>
</linearGradient>
<linearGradient id="paint1_linear_3_7716" x1="42.3882" y1="67.8134" x2="94.8256" y2="105.48" gradientUnits="userSpaceOnUse">
<stop stop-color="#FBB8A6"/>
<stop offset="1" stop-color="#FBDAD0" stop-opacity="0.1"/>
</linearGradient>
<linearGradient id="paint2_linear_3_7716" x1="48.0369" y1="51.9343" x2="75.8471" y2="71.9106" gradientUnits="userSpaceOnUse">
<stop stop-color="#FBB8A6"/>
<stop offset="1" stop-color="#FBDAD0" stop-opacity="0.1"/>
</linearGradient>
<linearGradient id="paint3_linear_3_7716" x1="84.627" y1="40.8038" x2="84.1047" y2="51.9688" gradientUnits="userSpaceOnUse">
<stop stop-color="#F3B0A8"/>
<stop offset="1" stop-color="#F5CEB5"/>
</linearGradient>
<linearGradient id="paint4_linear_3_7716" x1="39.4473" y1="40.8038" x2="39.9696" y2="51.9688" gradientUnits="userSpaceOnUse">
<stop stop-color="#F3B0A8"/>
<stop offset="1" stop-color="#F5CEB5"/>
</linearGradient>
<linearGradient id="paint5_linear_3_7716" x1="41.3978" y1="47.7984" x2="41.3978" y2="38.6284" gradientUnits="userSpaceOnUse">
<stop stop-color="#FBB8A6"/>
<stop offset="1" stop-color="#FBDAD0" stop-opacity="0.1"/>
</linearGradient>
<linearGradient id="paint6_linear_3_7716" x1="82.676" y1="47.7985" x2="82.676" y2="38.6285" gradientUnits="userSpaceOnUse">
<stop stop-color="#FBB8A6"/>
<stop offset="1" stop-color="#FBDAD0" stop-opacity="0.1"/>
</linearGradient>
<linearGradient id="paint7_linear_3_7716" x1="62.0375" y1="50.988" x2="62.0375" y2="11.5541" gradientUnits="userSpaceOnUse">
<stop stop-color="#FBDAD0"/>
<stop offset="1" stop-color="#FBD0C4"/>
</linearGradient>
<linearGradient id="paint8_linear_3_7716" x1="44.0162" y1="19.0986" x2="76.8661" y2="42.6949" gradientUnits="userSpaceOnUse">
<stop stop-color="#FBB8A6"/>
<stop offset="1" stop-color="#FBDAD0" stop-opacity="0.1"/>
</linearGradient>
<linearGradient id="paint9_linear_3_7716" x1="39.9136" y1="22.4746" x2="84.1607" y2="22.4746" gradientUnits="userSpaceOnUse">
<stop stop-color="#FBB8A6"/>
<stop offset="1" stop-color="#FBDAD0" stop-opacity="0.1"/>
</linearGradient>
<linearGradient id="paint10_linear_3_7716" x1="62.0233" y1="53.3047" x2="62.0233" y2="57.7564" gradientUnits="userSpaceOnUse">
<stop stop-color="#302869"/>
<stop offset="1" stop-color="#852325"/>
</linearGradient>
<linearGradient id="paint11_linear_3_7716" x1="62.0366" y1="54.2511" x2="62.0366" y2="58.3351" gradientUnits="userSpaceOnUse">
<stop stop-color="#851C1E"/>
<stop offset="1" stop-color="#D02D2F"/>
</linearGradient>
<linearGradient id="paint12_linear_3_7716" x1="55.9312" y1="54.5239" x2="68.1421" y2="54.5239" gradientUnits="userSpaceOnUse">
<stop stop-color="white"/>
<stop offset="1" stop-color="#BEDFE8"/>
</linearGradient>
<linearGradient id="paint13_linear_3_7716" x1="72.3487" y1="34.8612" x2="72.3487" y2="39.7915" gradientUnits="userSpaceOnUse">
<stop stop-color="#252A3B"/>
<stop offset="1" stop-color="#676B78"/>
</linearGradient>
<linearGradient id="paint14_linear_3_7716" x1="51.7276" y1="34.8612" x2="51.7276" y2="39.7915" gradientUnits="userSpaceOnUse">
<stop stop-color="#252A3B"/>
<stop offset="1" stop-color="#676B78"/>
</linearGradient>
<linearGradient id="paint15_linear_3_7716" x1="62.0385" y1="87.1989" x2="62.0385" y2="134.171" gradientUnits="userSpaceOnUse">
<stop stop-color="white"/>
<stop offset="1" stop-color="#CCD6E8"/>
</linearGradient>
<linearGradient id="paint16_linear_3_7716" x1="64.0207" y1="92.819" x2="60.5403" y2="81.2684" gradientUnits="userSpaceOnUse">
<stop stop-color="#3B3D45"/>
<stop offset="1" stop-color="#252A3B"/>
</linearGradient>
<linearGradient id="paint17_linear_3_7716" x1="70.5157" y1="137.507" x2="56.0863" y2="89.6191" gradientUnits="userSpaceOnUse">
<stop stop-color="#3B3D45"/>
<stop offset="1" stop-color="#252A3B"/>
</linearGradient>
<linearGradient id="paint18_linear_3_7716" x1="53.6417" y1="68.1809" x2="53.6417" y2="92.3111" gradientUnits="userSpaceOnUse">
<stop stop-color="white"/>
<stop offset="1" stop-color="#CCD6E8"/>
</linearGradient>
<linearGradient id="paint19_linear_3_7716" x1="70.434" y1="68.1804" x2="70.434" y2="92.3106" gradientUnits="userSpaceOnUse">
<stop stop-color="white"/>
<stop offset="1" stop-color="#CCD6E8"/>
</linearGradient>
<linearGradient id="paint20_linear_3_7716" x1="34.3091" y1="16.6445" x2="88.1479" y2="16.6445" gradientUnits="userSpaceOnUse">
<stop stop-color="#3B3D45"/>
<stop offset="1" stop-color="#252A3B"/>
</linearGradient>
</defs>
</svg>
